<?xml version="1.0" standalone="no"?>
<!DOCTYPE svg PUBLIC "-//W3C//DTD SVG 20010904//EN"
 "http://www.w3.org/TR/2001/REC-SVG-20010904/DTD/svg10.dtd">
<svg version="1.0" xmlns="http://www.w3.org/2000/svg"
 width="500.000000pt" height="500.000000pt" viewBox="0 0 500.000000 500.000000"
 preserveAspectRatio="xMidYMid meet">

<g transform="translate(0.000000,500.000000) scale(0.100000,-0.100000)"
fill="#000000" stroke="none">
<path d="M2372 4738 c-288 -22 -580 -98 -845 -217 -131 -59 -367 -203 -452
-276 -16 -15 6 -2 50 28 345 235 733 378 1130 418 75 7 192 10 310 6 350 -10
588 -73 930 -245 243 -122 413 -242 596 -422 119 -117 109 -112 -50 26 -322
279 -818 493 -1301 560 -152 21 -477 24 -595 5 -327 -52 -570 -151 -852 -347
-107 -75 -135 -104 -36 -38 108 72 351 188 474 227 263 83 563 115 814 87 411
-46 764 -159 1083 -348 428 -253 723 -599 938 -1096 l42 -99 11 39 c6 22 11
49 11 61 0 51 19 27 40 -50 91 -335 101 -719 29 -1042 -56 -253 -158 -492
-316 -740 -82 -130 -26 -66 74 84 261 391 386 836 354 1264 -43 579 -292 1123
-683 1492 -432 408 -1170 670 -1756 623z m1868 -863 c13 -14 21 -25 18 -25 -2
0 -15 11 -28 25 -13 14 -21 25 -18 25 2 0 15 -11 28 -25z"/>
<path d="M1019 4203 c-13 -16 -12 -17 4 -4 9 7 17 15 17 17 0 8 -8 3 -21 -13z"/>
<path d="M2925 4022 c-16 -11 -70 -61 -120 -113 -71 -75 -101 -116 -141 -194
-57 -109 -146 -309 -175 -393 -10 -29 -25 -59 -33 -67 -8 -8 -24 -41 -36 -72
-37 -98 -123 -427 -141 -538 -6 -38 -21 -99 -34 -135 -12 -36 -30 -108 -39
-160 -19 -119 -40 -458 -32 -525 19 -150 125 -236 225 -183 l44 23 22 111 c39
191 100 368 240 689 71 164 98 216 144 279 20 28 72 110 116 181 116 193 276
430 361 536 99 124 250 287 288 310 78 48 123 4 112 -108 -10 -94 -87 -295
-121 -315 -7 -4 -34 -43 -61 -85 -132 -217 -341 -422 -511 -503 -46 -22 -86
-47 -90 -56 -17 -44 70 -129 158 -155 32 -10 47 -8 113 15 92 31 126 32 183 5
50 -24 105 -93 102 -129 -1 -14 1 -46 5 -72 21 -126 -99 -326 -301 -504 -125
-109 -303 -224 -488 -314 -192 -94 -328 -141 -493 -172 -134 -24 -149 -37 -82
-70 53 -25 251 -51 332 -44 155 16 366 81 565 176 420 200 672 484 732 824 16
90 13 157 -10 232 -28 89 -104 170 -194 203 -72 27 -170 44 -205 36 -14 -3 10
14 52 38 334 192 555 488 599 802 41 293 -134 517 -330 423 -89 -43 -336 -303
-523 -553 -117 -155 -268 -386 -261 -398 3 -5 1 -7 -5 -3 -6 4 -16 -8 -23 -29
-7 -19 -17 -35 -23 -35 -5 0 -6 -3 -3 -7 4 -3 -8 -34 -27 -67 -120 -215 -259
-529 -322 -726 -14 -45 -27 -80 -29 -78 -2 1 1 37 5 78 5 41 9 102 10 136 0
41 13 106 39 195 22 74 58 209 81 301 45 185 99 350 161 490 22 51 42 102 44
113 1 11 3 24 4 28 0 5 5 5 11 2 6 -4 7 1 3 11 -4 12 -3 15 5 10 8 -5 10 -1 5
10 -5 13 -3 15 7 9 9 -5 11 -4 6 4 -13 20 117 240 168 282 17 15 44 51 60 82
l29 55 -23 47 c-23 48 -69 85 -105 85 -11 0 -33 -8 -50 -18z m976 -681 c-12
-28 -32 -68 -45 -89 -24 -38 -106 -138 -106 -129 0 3 26 47 59 98 32 52 69
113 82 136 13 23 25 40 27 39 1 -2 -6 -26 -17 -55z m-1584 -967 c-14 -33 -27
-70 -30 -84 -3 -14 -4 3 -2 38 3 34 15 86 27 115 23 51 23 51 26 21 2 -18 -8
-58 -21 -90z m1192 -261 c-27 -85 -70 -165 -111 -209 -38 -42 -136 -114 -154
-114 -3 0 23 31 59 70 75 79 150 183 187 258 28 56 39 53 19 -5z"/>
<path d="M1900 3983 c-94 -16 -239 -80 -335 -148 -115 -82 -284 -275 -273
-312 4 -15 -36 -108 -52 -120 -12 -9 -15 -35 -13 -140 2 -170 28 -270 139
-526 186 -432 234 -563 241 -647 5 -62 2 -91 -16 -147 -42 -139 -165 -278
-309 -349 -68 -33 -87 -38 -167 -42 -82 -3 -93 -2 -125 20 -57 38 -80 96 -80
204 0 126 34 254 100 379 35 68 50 107 48 128 -9 89 -105 47 -230 -100 -113
-133 -172 -280 -172 -433 -1 -88 2 -100 32 -162 47 -96 126 -153 254 -183 81
-19 233 -19 323 0 150 32 372 138 429 206 29 34 28 51 -1 28 -10 -8 8 15 40
51 141 160 188 346 138 542 -23 87 -59 163 -143 300 -49 81 -138 288 -124 288
3 0 26 -40 52 -90 27 -49 50 -88 51 -86 2 2 -26 63 -61 137 -139 289 -158 467
-70 648 42 85 144 198 232 258 31 21 62 44 68 52 7 8 16 11 24 6 8 -5 11 -4 7
2 -4 6 15 19 46 31 210 83 337 47 323 -90 -8 -77 -92 -257 -157 -338 l-20 -25
17 35 c31 64 -12 15 -52 -59 -20 -36 -50 -86 -66 -110 -37 -54 -31 -76 18 -68
49 8 125 68 224 176 135 147 226 279 236 342 9 54 -30 146 -86 200 -97 95
-343 167 -490 142z m-1131 -1958 c-55 -124 -76 -317 -45 -418 19 -63 2 -50
-20 16 -38 110 -21 253 48 390 34 68 45 76 17 12z"/>
<path d="M819 3843 c-13 -16 -12 -17 4 -4 9 7 17 15 17 17 0 8 -8 3 -21 -13z"/>
<path d="M760 3768 c-137 -172 -287 -439 -357 -638 -84 -238 -113 -399 -122
-675 l-6 -210 -20 100 c-24 122 -28 418 -6 530 48 253 120 470 223 675 81 162
75 170 -11 15 -210 -377 -313 -909 -243 -1251 21 -106 118 -451 176 -628 41
-123 162 -366 248 -498 325 -497 997 -879 1623 -923 182 -13 511 17 770 70
315 65 503 146 743 320 141 101 159 126 30 40 -268 -178 -439 -242 -823 -310
-198 -34 -312 -44 -540 -47 -221 -2 -274 5 -482 68 -320 96 -650 263 -857 433
-100 82 -261 251 -335 350 -93 126 -91 130 16 19 234 -242 572 -484 898 -644
161 -78 388 -160 477 -170 51 -6 56 -5 76 21 31 39 28 45 -22 45 -177 0 -609
192 -1002 445 -340 219 -658 598 -767 912 -73 207 -103 434 -93 693 9 261 51
502 121 700 46 129 159 350 248 483 47 70 84 127 82 127 -2 0 -22 -24 -45 -52z"/>
<path d="M2220 3796 c0 -2 8 -10 18 -17 15 -13 16 -12 3 4 -13 16 -21 21 -21
13z"/>
<path d="M2252 3730 c0 -19 2 -27 5 -17 2 9 2 25 0 35 -3 9 -5 1 -5 -18z"/>
<path d="M4610 2971 c0 -13 28 -71 35 -71 4 0 -24 71 -31 79 -2 2 -4 -1 -4 -8z"/>
<path d="M4299 1153 c-13 -16 -12 -17 4 -4 9 7 17 15 17 17 0 8 -8 3 -21 -13z"/>
<path d="M3949 793 c-13 -16 -12 -17 4 -4 16 13 21 21 13 21 -2 0 -10 -8 -17
-17z"/>
</g>
</svg>
